<svg width="38" height="38" viewBox="0 0 38 38" fill="none" xmlns="http://www.w3.org/2000/svg">
<path d="M19 4.5125C21.755 4.5125 23.9875 6.745 23.9875 9.5C23.9875 12.255 21.755 14.4875 19 14.4875C16.245 14.4875 14.0125 12.255 14.0125 9.5C14.0125 6.745 16.245 4.5125 19 4.5125ZM19 25.8875C26.0538 25.8875 33.4875 29.355 33.4875 30.875C33.4875 32.3178 32.3178 33.4875 30.875 33.4875H7.125C5.68216 33.4875 4.5125 32.3178 4.5125 30.875C4.5125 29.355 11.9462 25.8875 19 25.8875ZM19 0C13.7513 0 9.5 4.25125 9.5 9.5C9.5 14.7487 13.7513 19 19 19C24.2488 19 28.5 14.7487 28.5 9.5C28.5 4.25125 24.2488 0 19 0ZM19 21.375C12.6587 21.375 0 24.5575 0 30.875C0 34.81 3.18997 38 7.125 38H30.875C34.81 38 38 34.81 38 30.875C38 24.5575 25.3412 21.375 19 21.375Z" fill="#171242"/>
</svg>
