<svg width="17" height="17" viewBox="0 0 17 17" fill="none" xmlns="http://www.w3.org/2000/svg">
<path d="M0.944444 15.1111C0.676852 15.1111 0.452704 15.0204 0.272 14.8391C0.0906668 14.6584 0 14.4343 0 14.1667C0 13.8991 0.0906668 13.6749 0.272 13.4942C0.452704 13.3129 0.676852 13.2222 0.944444 13.2222H4.72222C4.98981 13.2222 5.21428 13.3129 5.39561 13.4942C5.57631 13.6749 5.66667 13.8991 5.66667 14.1667C5.66667 14.4343 5.57631 14.6584 5.39561 14.8391C5.21428 15.0204 4.98981 15.1111 4.72222 15.1111H0.944444ZM0.944444 3.77778C0.676852 3.77778 0.452704 3.68743 0.272 3.50672C0.0906668 3.32539 0 3.10093 0 2.83333C0 2.56574 0.0906668 2.34128 0.272 2.15994C0.452704 1.97924 0.676852 1.88889 0.944444 1.88889H8.5C8.76759 1.88889 8.99206 1.97924 9.17339 2.15994C9.35409 2.34128 9.44444 2.56574 9.44444 2.83333C9.44444 3.10093 9.35409 3.32539 9.17339 3.50672C8.99206 3.68743 8.76759 3.77778 8.5 3.77778H0.944444ZM8.5 17C8.23241 17 8.00826 16.9093 7.82756 16.728C7.64622 16.5473 7.55556 16.3231 7.55556 16.0556V12.2778C7.55556 12.0102 7.64622 11.7857 7.82756 11.6044C8.00826 11.4237 8.23241 11.3333 8.5 11.3333C8.76759 11.3333 8.99206 11.4237 9.17339 11.6044C9.35409 11.7857 9.44444 12.0102 9.44444 12.2778V13.2222H16.0556C16.3231 13.2222 16.5473 13.3129 16.728 13.4942C16.9093 13.6749 17 13.8991 17 14.1667C17 14.4343 16.9093 14.6584 16.728 14.8391C16.5473 15.0204 16.3231 15.1111 16.0556 15.1111H9.44444V16.0556C9.44444 16.3231 9.35409 16.5473 9.17339 16.728C8.99206 16.9093 8.76759 17 8.5 17ZM4.72222 11.3333C4.45463 11.3333 4.23017 11.2427 4.04883 11.0613C3.86813 10.8806 3.77778 10.6565 3.77778 10.3889V9.44444H0.944444C0.676852 9.44444 0.452704 9.35378 0.272 9.17244C0.0906668 8.99174 0 8.76759 0 8.5C0 8.23241 0.0906668 8.00794 0.272 7.82661C0.452704 7.64591 0.676852 7.55556 0.944444 7.55556H3.77778V6.61111C3.77778 6.34352 3.86813 6.11906 4.04883 5.93772C4.23017 5.75702 4.45463 5.66667 4.72222 5.66667C4.98981 5.66667 5.21428 5.75702 5.39561 5.93772C5.57631 6.11906 5.66667 6.34352 5.66667 6.61111V10.3889C5.66667 10.6565 5.57631 10.8806 5.39561 11.0613C5.21428 11.2427 4.98981 11.3333 4.72222 11.3333ZM8.5 9.44444C8.23241 9.44444 8.00826 9.35378 7.82756 9.17244C7.64622 8.99174 7.55556 8.76759 7.55556 8.5C7.55556 8.23241 7.64622 8.00794 7.82756 7.82661C8.00826 7.64591 8.23241 7.55556 8.5 7.55556H16.0556C16.3231 7.55556 16.5473 7.64591 16.728 7.82661C16.9093 8.00794 17 8.23241 17 8.5C17 8.76759 16.9093 8.99174 16.728 9.17244C16.5473 9.35378 16.3231 9.44444 16.0556 9.44444H8.5ZM12.2778 5.66667C12.0102 5.66667 11.786 5.576 11.6053 5.39467C11.424 5.21396 11.3333 4.98981 11.3333 4.72222V0.944444C11.3333 0.676852 11.424 0.452389 11.6053 0.271055C11.786 0.0903518 12.0102 0 12.2778 0C12.5454 0 12.7695 0.0903518 12.9502 0.271055C13.1316 0.452389 13.2222 0.676852 13.2222 0.944444V1.88889H16.0556C16.3231 1.88889 16.5473 1.97924 16.728 2.15994C16.9093 2.34128 17 2.56574 17 2.83333C17 3.10093 16.9093 3.32539 16.728 3.50672C16.5473 3.68743 16.3231 3.77778 16.0556 3.77778H13.2222V4.72222C13.2222 4.98981 13.1316 5.21396 12.9502 5.39467C12.7695 5.576 12.5454 5.66667 12.2778 5.66667Z" fill="#2D2377"/>
</svg>
