<svg width="30" height="28" viewBox="0 0 30 28" fill="none" xmlns="http://www.w3.org/2000/svg">
<path d="M21.75 0.5C19.14 0.5 16.635 1.69183 15 3.5752C13.365 1.69183 10.86 0.5 8.25 0.5C3.63 0.5 0 4.06076 0 8.59264C0 14.1545 5.1 18.6864 12.825 25.5725L15 27.5L17.175 25.5578C24.9 18.6864 30 14.1545 30 8.59264C30 4.06076 26.37 0.5 21.75 0.5ZM15.15 23.3801L15 23.5272L14.85 23.3801C7.71 17.0384 3 12.845 3 8.59264C3 5.64986 5.25 3.44278 8.25 3.44278C10.0792 3.44278 11.8707 4.35613 12.932 5.73721C13.4325 6.38847 14.1448 6.91526 14.9662 6.91526H15.0394C15.8654 6.91526 16.5807 6.38223 17.0834 5.72678C18.1383 4.35154 19.9255 3.44278 21.75 3.44278C24.75 3.44278 27 5.64986 27 8.59264C27 12.845 22.29 17.0384 15.15 23.3801Z" fill="#2D2377"/>
</svg>
