<svg width="198" height="203" viewBox="0 0 198 203" fill="none" xmlns="http://www.w3.org/2000/svg">
<path opacity="0.05" d="M124.987 142.179C126.802 144.032 129.03 144.959 131.67 144.959C134.31 144.959 136.62 143.948 138.6 141.927C140.415 140.074 141.322 137.716 141.322 134.852C141.322 131.989 140.415 129.63 138.6 127.777L108.9 97.4573V60.8205C108.9 57.9569 107.953 55.5987 106.059 53.7458C104.158 51.8929 101.805 50.9664 99 50.9664C96.195 50.9664 93.8454 51.9333 91.9512 53.8671C90.0504 55.8076 89.1 58.2096 89.1 61.0732V101.247C89.1 102.595 89.3475 103.899 89.8425 105.159C90.3375 106.425 91.08 107.564 92.07 108.575L124.987 142.179ZM99 202.567C85.305 202.567 72.435 199.912 60.39 194.603C48.345 189.3 37.8675 182.101 28.9575 173.005C20.0475 163.909 12.9954 153.213 7.8012 140.916C2.6004 128.62 0 115.481 0 101.5C0 87.519 2.6004 74.3803 7.8012 62.0838C12.9954 49.7873 20.0475 39.0911 28.9575 29.995C37.8675 20.899 48.345 13.6963 60.39 8.3869C72.435 3.08425 85.305 0.432922 99 0.432922C112.695 0.432922 125.565 3.08425 137.61 8.3869C149.655 13.6963 160.133 20.899 169.042 29.995C177.952 39.0911 185.005 49.7873 190.199 62.0838C195.4 74.3803 198 87.519 198 101.5C198 115.481 195.4 128.62 190.199 140.916C185.005 153.213 177.952 163.909 169.042 173.005C160.133 182.101 149.655 189.3 137.61 194.603C125.565 199.912 112.695 202.567 99 202.567Z" fill="#2D2377"/>
</svg>
