<svg width="275" height="203" viewBox="0 0 275 203" fill="none" xmlns="http://www.w3.org/2000/svg">
<path opacity="0.05" d="M12.5 202.134C8.95833 202.134 5.99167 200.921 3.6 198.496C1.2 196.079 0 193.08 0 189.501V166.761C0 159.602 1.825 153.02 5.475 147.015C9.11667 141.018 13.9583 136.441 20 133.282C32.9167 126.755 46.0417 121.857 59.375 118.59C72.7083 115.33 86.25 113.7 100 113.7C113.75 113.7 127.292 115.33 140.625 118.59C153.958 121.857 167.083 126.755 180 133.282C186.042 136.441 190.883 141.018 194.525 147.015C198.175 153.02 200 159.602 200 166.761V189.501C200 193.08 198.8 196.079 196.4 198.496C194.008 200.921 191.042 202.134 187.5 202.134H12.5ZM219.062 202.134C220.938 200.66 222.396 198.816 223.438 196.601C224.479 194.394 225 191.922 225 189.185V164.234C225 154.969 222.45 146.071 217.35 137.54C212.242 129.016 205 121.702 195.625 115.595C206.25 116.859 216.25 119.015 225.625 122.064C235 125.121 243.75 128.861 251.875 133.282C259.375 137.493 265.104 142.176 269.062 147.33C273.021 152.493 275 158.128 275 164.234V189.501C275 193.08 273.8 196.079 271.4 198.496C269.008 200.921 266.042 202.134 262.5 202.134H219.062ZM100 101.067C86.25 101.067 74.4792 96.119 64.6875 86.2228C54.8958 76.3267 50 64.4302 50 50.5335C50 36.6368 54.8958 24.7404 64.6875 14.8442C74.4792 4.94808 86.25 0 100 0C113.75 0 125.521 4.94808 135.312 14.8442C145.104 24.7404 150 36.6368 150 50.5335C150 64.4302 145.104 76.3267 135.312 86.2228C125.521 96.119 113.75 101.067 100 101.067ZM225 50.5335C225 64.4302 220.104 76.3267 210.313 86.2228C200.521 96.119 188.75 101.067 175 101.067C172.708 101.067 169.792 100.806 166.25 100.284C162.708 99.7532 159.792 99.1721 157.5 98.5404C163.125 91.8026 167.446 84.3278 170.462 76.1161C173.488 67.9044 175 59.3769 175 50.5335C175 41.6902 173.488 33.1626 170.462 24.9509C167.446 16.7392 163.125 9.26448 157.5 2.52667C160.417 1.47389 163.333 0.787483 166.25 0.467437C169.167 0.155814 172.083 0 175 0C188.75 0 200.521 4.94808 210.313 14.8442C220.104 24.7404 225 36.6368 225 50.5335Z" fill="#2D2377"/>
</svg>
