<svg width="92" height="42" viewBox="0 0 92 42" fill="none" xmlns="http://www.w3.org/2000/svg">
<path d="M10.2931 23.6103C10.2028 24.2044 9.91555 24.698 9.44767 25.0996C8.97979 25.5012 8.45446 25.6936 7.87167 25.6936C6.74712 25.6936 5.99195 24.7733 6.16433 23.6103L9.84167 2.42616C9.93196 1.84887 10.2193 1.37198 10.6871 0.97038C11.155 0.568785 11.6803 0.359619 12.2467 0.359619C13.3959 0.359619 14.1839 1.25484 13.9705 2.42616L10.2931 23.6103Z" fill="#2D2377"/>
<path d="M30.6171 1.22152C31.914 2.00798 32.8908 3.11236 33.5064 4.50958C34.1467 5.9068 34.3108 7.43788 34.0317 9.0861L31.5364 23.5937C31.4461 24.1878 31.1424 24.6814 30.6745 25.083C30.2067 25.4846 29.6813 25.6937 29.1149 25.6937C27.9329 25.6937 27.1778 24.7902 27.3912 23.5854L29.8865 9.15303C30.1328 7.75581 29.8455 6.59286 29.0575 5.64743C28.2695 4.71038 27.2188 4.23349 25.8808 4.23349C24.5429 4.23349 23.3855 4.69365 22.3512 5.6307C21.3334 6.55102 20.7178 7.71398 20.4715 9.15303L17.9762 23.5854C17.8859 24.1794 17.5822 24.673 17.0979 25.0746C16.63 25.4762 16.1047 25.6854 15.5383 25.6854C14.4138 25.6854 13.6258 24.7483 13.831 23.577L16.3427 9.06936C16.8106 6.33349 17.9351 4.14982 19.7574 2.48487C21.5797 0.819924 23.722 0 26.2174 0C27.8509 0 29.3119 0.401594 30.6089 1.20479L30.6171 1.22152Z" fill="#2D2377"/>
<path d="M52.082 22.732C52.2297 23.4767 52.0984 24.1711 51.6715 24.7818C51.2611 25.3926 50.6044 25.7022 49.7179 25.7022C48.8889 25.7022 48.0845 25.2085 47.9942 24.4221L47.3539 20.5986H38.3986L36.5435 24.4221C36.1659 25.2085 35.3041 25.7022 34.475 25.7022C33.646 25.7022 33.0878 25.3926 32.7266 24.7986C32.349 24.1878 32.3737 23.4934 32.7677 22.7153L43.8079 1.53114C44.243 0.711215 45.0638 0.225952 46.0242 0.225952C46.9846 0.225952 47.6576 0.744681 47.83 1.53114L52.0902 22.732H52.082ZM40.2537 16.8001H46.7301L45.0966 6.86901L40.2537 16.8001Z" fill="#2D2377"/>
<path d="M68.1949 23.2671C66.6928 24.8149 64.0661 26.0448 60.8895 26.0448C58.2628 26.0448 56.104 24.9739 54.8809 23.3424C53.6579 21.6775 53.1736 19.4352 53.5676 17.0675L54.9384 9.02722C55.2175 7.32044 55.8249 5.81446 56.7032 4.45071C57.6061 3.09532 58.7717 2.0244 60.1917 1.21284C61.62 0.409651 63.196 0.00805664 64.9033 0.00805664C67.136 0.00805664 69.106 0.827981 70.3291 2.05787C71.5521 3.27939 72.3155 4.76027 72.5453 6.26625C72.767 7.81407 71.7409 8.85152 70.3127 8.85152C69.3523 8.85152 68.7531 8.37463 68.5479 7.41247C68.1128 5.49653 66.6107 4.23318 64.6653 4.23318C63.3684 4.23318 62.17 4.71007 61.0782 5.68896C59.9865 6.66785 59.3134 7.84754 59.0672 9.26985L57.7128 16.942C57.4666 18.3811 57.7128 19.544 58.4844 20.4476C59.256 21.3428 60.2902 21.7862 61.6036 21.7862C63.4258 21.7862 64.9608 20.8659 66.2249 19.0085C66.504 18.6655 66.7338 18.3978 66.9226 18.2054C67.3002 17.8205 67.9322 17.4189 68.6135 17.4189C70.4522 17.4189 70.682 19.4269 70.1321 20.5229C69.6067 21.5771 68.9665 22.4723 68.1949 23.2588V23.2671Z" fill="#2D2377"/>
<path d="M74.3183 9.06911C74.7534 6.60097 75.8615 4.47586 77.6756 2.69378C79.4978 0.911703 81.6566 0.0164795 84.1355 0.0164795C86.6145 0.0164795 88.9456 1.10413 90.2918 2.79418C91.6462 4.45913 92.2782 6.75157 91.8842 9.06911L90.5134 17.0341C90.0456 19.6361 88.9374 21.803 87.1562 23.5015C85.375 25.1999 83.1587 26.0449 80.5074 26.0449C75.4921 26.162 71.9051 21.8532 72.9229 17.0341L74.3101 9.06911H74.3183ZM77.1174 16.8333C76.8547 18.2891 77.0764 19.4771 77.8151 20.4142C78.5456 21.3345 79.5635 21.7947 80.8358 21.7947C82.1081 21.7947 83.3311 21.3345 84.4064 20.4142C85.4735 19.4939 86.1548 18.3058 86.4175 16.8333L87.7308 9.21971C87.9771 7.76393 87.7308 6.57587 86.9756 5.63882C86.2451 4.70176 85.2273 4.2416 83.9303 4.2416C82.6334 4.2416 81.4925 4.70176 80.4172 5.63882C79.3501 6.57587 78.6934 7.76393 78.4307 9.21971L77.1174 16.8333Z" fill="#2D2377"/>
<path d="M7.65824 31.4329C7.6254 31.6002 7.53511 31.7257 7.37915 31.7926C7.22319 31.8596 7.04261 31.8177 6.87023 31.6671C6.60757 31.2906 6.25461 31.0982 5.81135 31.0982C5.09723 31.0982 4.61293 31.6086 4.46518 32.4787L4.35027 33.1313L4.06297 34.813H6.01656C6.27102 34.813 6.45161 35.0305 6.40236 35.2899C6.35311 35.5492 6.10686 35.7668 5.84419 35.7668H3.8906L3.21751 39.6321C3.10259 40.3349 2.83172 40.9038 2.40488 41.3389C1.98626 41.774 1.42809 41.9999 0.722169 41.9999H0.451293C0.139375 41.9999 -0.0412095 41.8074 0.00804071 41.523C0.0654993 41.2218 0.287125 41.0461 0.615459 41.0461H0.681126C1.55942 41.0461 2.09296 40.5775 2.24892 39.6488L3.37347 33.1313L3.52122 32.3197C3.63614 31.6588 3.89881 31.1233 4.32564 30.7301C4.75248 30.3285 5.28602 30.1277 5.91806 30.1277C6.67323 30.1277 7.2314 30.4038 7.57615 30.9727C7.66645 31.1066 7.69107 31.2655 7.65824 31.4329Z" fill="#2D2377"/>
<path d="M7.27245 39.0797C7.2232 39.3642 6.97695 39.5733 6.69786 39.5733C6.41878 39.5733 6.23819 39.3558 6.28744 39.0797L7.27245 33.3904C7.32991 33.0976 7.57616 32.8884 7.85524 32.8884C8.13432 32.8884 8.3067 33.106 8.25745 33.3904L7.27245 39.0797ZM8.16716 31.0394C8.47908 31.0394 8.68429 31.2904 8.63504 31.6084C8.57758 31.9096 8.28208 32.1773 7.97016 32.1773C7.65824 32.1773 7.45303 31.9179 7.5187 31.6084C7.57616 31.2904 7.86345 31.0394 8.16716 31.0394Z" fill="#2D2377"/>
<path d="M13.519 33.4825C13.9622 33.9594 14.1264 34.5199 14.0115 35.1892L13.3384 39.0881C13.2891 39.3809 13.0265 39.6068 12.7474 39.6068C12.4683 39.6068 12.3123 39.3809 12.3616 39.0881L13.0347 35.206C13.1003 34.8044 13.0101 34.453 12.7474 34.1769C12.4929 33.8924 12.14 33.7502 11.6967 33.7502C11.2535 33.7502 10.8677 33.8924 10.5147 34.1769C10.17 34.4613 9.95655 34.8044 9.89088 35.206L9.21779 39.0881C9.16034 39.3809 8.92229 39.6068 8.65142 39.6068C8.38054 39.6068 8.18354 39.3809 8.23279 39.0881L8.90587 35.1892C9.02079 34.4864 9.34913 33.9175 9.87446 33.4657C10.3998 33.0056 11.04 32.7797 11.7788 32.7797C12.5176 32.7797 13.0757 33.0139 13.5108 33.4908L13.519 33.4825Z" fill="#2D2377"/>
<path d="M19.1499 39.0718C19.0925 39.3813 18.8873 39.5989 18.6328 39.5989C18.3455 39.5989 18.2388 39.4315 18.2963 39.0801L18.3619 38.6702C18.1157 38.963 17.812 39.2056 17.4426 39.3981C17.0732 39.5905 16.7038 39.6909 16.3263 39.6909C15.6696 39.6909 15.1442 39.465 14.7502 39.0216C14.3645 38.5698 14.2331 37.9925 14.348 37.273L14.7092 35.1897C14.8241 34.5287 15.1771 33.9598 15.7517 33.4829C16.3263 33.006 16.9747 32.7717 17.6806 32.7717C18.3866 32.7717 18.9529 33.006 19.3634 33.4829C19.7738 33.9598 19.9297 34.5203 19.8148 35.1897L19.1417 39.0801L19.1499 39.0718ZM18.8298 35.2231C18.9037 34.8048 18.8134 34.4618 18.5589 34.1773C18.3127 33.8845 17.9597 33.7423 17.5247 33.7423C17.0896 33.7423 16.6874 33.8845 16.3345 34.1773C15.9815 34.4618 15.7763 34.8048 15.6942 35.2231L15.3413 37.2479C15.2756 37.6662 15.3659 38.0092 15.6203 38.302C15.8748 38.5865 16.2278 38.7287 16.671 38.7287C17.1143 38.7287 17.5001 38.5865 17.853 38.302C18.206 38.0092 18.4194 37.6662 18.4851 37.2479L18.838 35.2231H18.8298Z" fill="#2D2377"/>
<path d="M25.1421 33.4825C25.5853 33.9594 25.7495 34.5199 25.6346 35.1892L24.9615 39.0881C24.9123 39.3809 24.6496 39.6068 24.3705 39.6068C24.0914 39.6068 23.9355 39.3809 23.9847 39.0881L24.6578 35.206C24.7235 34.8044 24.6332 34.453 24.3705 34.1769C24.116 33.8924 23.7631 33.7502 23.3198 33.7502C22.8766 33.7502 22.4908 33.8924 22.1378 34.1769C21.7931 34.4613 21.5797 34.8044 21.514 35.206L20.8409 39.0881C20.7834 39.3809 20.5454 39.6068 20.2745 39.6068C20.0036 39.6068 19.8066 39.3809 19.8559 39.0881L20.529 35.1892C20.6439 34.4864 20.9722 33.9175 21.4976 33.4657C22.0229 33.0056 22.6632 32.7797 23.4019 32.7797C24.1407 32.7797 24.6988 33.0139 25.1339 33.4908L25.1421 33.4825Z" fill="#2D2377"/>
<path d="M26.3404 35.1806C26.4635 34.4695 26.7919 33.8754 27.3172 33.432C27.8508 32.9886 28.4992 32.7627 29.2626 32.7627C29.8208 32.7627 30.3379 32.9384 30.6662 33.1978C31.0028 33.4488 31.208 33.7248 31.3393 34.0009C31.4132 34.1348 31.4378 34.2603 31.4132 34.3774C31.3804 34.6368 31.1505 34.8292 30.8714 34.8292C30.7237 34.8292 30.6006 34.7539 30.4856 34.595C30.2804 34.1348 29.829 33.7332 29.1231 33.7332C28.6962 33.7332 28.3104 33.8838 27.9575 34.1683C27.6045 34.4611 27.3993 34.7958 27.3254 35.1974L26.9725 37.2304C26.9068 37.632 26.9971 37.9834 27.2515 38.2679C27.506 38.5607 27.8508 38.703 28.2694 38.703C28.6223 38.703 28.9343 38.6193 29.2216 38.452C29.5089 38.2763 29.7387 38.0838 29.9111 37.8663C30.4282 37.3643 30.8632 37.7241 30.7811 38.1173C30.7155 38.3348 30.6088 38.5189 30.4692 38.6695C29.87 39.3388 29.1066 39.6735 28.1873 39.6735C27.465 39.6735 26.8904 39.4309 26.4635 38.9623C26.0367 38.4771 25.8808 37.9165 25.9957 37.2639L26.3568 35.1723L26.3404 35.1806Z" fill="#2D2377"/>
<path d="M32.1766 39.0797C32.1274 39.3642 31.8811 39.5733 31.602 39.5733C31.323 39.5733 31.1424 39.3558 31.1916 39.0797L32.1766 33.3904C32.2341 33.0976 32.4803 32.8884 32.7594 32.8884C33.0385 32.8884 33.2109 33.106 33.1616 33.3904L32.1766 39.0797ZM33.0713 31.0394C33.3832 31.0394 33.5885 31.2904 33.5392 31.6084C33.4817 31.9096 33.1863 32.1773 32.8743 32.1773C32.5624 32.1773 32.3572 31.9179 32.4229 31.6084C32.4803 31.2904 32.7676 31.0394 33.0713 31.0394Z" fill="#2D2377"/>
<path d="M38.1031 39.0718C38.0456 39.3813 37.8404 39.5989 37.5859 39.5989C37.2986 39.5989 37.1919 39.4315 37.2494 39.0801L37.3151 38.6702C37.0688 38.963 36.7651 39.2056 36.3957 39.3981C36.0263 39.5905 35.657 39.6909 35.2794 39.6909C34.6227 39.6909 34.0974 39.465 33.7034 39.0216C33.3176 38.5698 33.1862 37.9925 33.3012 37.273L33.6623 35.1897C33.7772 34.5287 34.1302 33.9598 34.7048 33.4829C35.2794 33.006 35.9278 32.7717 36.6338 32.7717C37.3397 32.7717 37.9061 33.006 38.3165 33.4829C38.7269 33.9598 38.8829 34.5203 38.7679 35.1897L38.0949 39.0801L38.1031 39.0718ZM37.7829 35.2231C37.8568 34.8048 37.7665 34.4618 37.5121 34.1773C37.2658 33.8845 36.9128 33.7423 36.4778 33.7423C36.0428 33.7423 35.6405 33.8845 35.2876 34.1773C34.9346 34.4618 34.7294 34.8048 34.6473 35.2231L34.2944 37.2479C34.2287 37.6662 34.319 38.0092 34.5735 38.302C34.8279 38.5865 35.1809 38.7287 35.6241 38.7287C36.0674 38.7287 36.4532 38.5865 36.8061 38.302C37.1591 38.0092 37.3725 37.6662 37.4382 37.2479L37.7911 35.2231H37.7829Z" fill="#2D2377"/>
<path d="M39.9007 39.0966C39.8514 39.381 39.6052 39.5902 39.3261 39.5902C39.047 39.5902 38.8664 39.3727 38.9157 39.0966L40.3686 30.6965C40.426 30.4037 40.6723 30.1862 40.9513 30.1862C41.2304 30.1862 41.411 30.4037 41.3536 30.6965L39.9007 39.0966Z" fill="#2D2377"/>
<path d="M44.1608 35.1806C44.2839 34.4695 44.6123 33.8754 45.1376 33.432C45.6711 32.9886 46.3196 32.7627 47.083 32.7627C47.6411 32.7627 48.1583 32.9384 48.4866 33.1978C48.8231 33.4488 49.0284 33.7248 49.1597 34.0009C49.2336 34.1348 49.2582 34.2603 49.2336 34.3774C49.2007 34.6368 48.9709 34.8292 48.6918 34.8292C48.5441 34.8292 48.4209 34.7539 48.306 34.595C48.1008 34.1348 47.6493 33.7332 46.9434 33.7332C46.5166 33.7332 46.1308 33.8838 45.7778 34.1683C45.4249 34.4611 45.2197 34.7958 45.1458 35.1974L44.7928 37.2304C44.7272 37.632 44.8175 37.9834 45.0719 38.2679C45.3264 38.5607 45.6711 38.703 46.0898 38.703C46.4427 38.703 46.7546 38.6193 47.0419 38.452C47.3292 38.2763 47.5591 38.0838 47.7314 37.8663C48.2486 37.3643 48.6836 37.7241 48.6015 38.1173C48.5358 38.3348 48.4291 38.5189 48.2896 38.6695C47.6904 39.3388 46.927 39.6735 46.0077 39.6735C45.2853 39.6735 44.7108 39.4309 44.2839 38.9623C43.8571 38.4771 43.7011 37.9165 43.816 37.2639L44.1772 35.1723L44.1608 35.1806Z" fill="#2D2377"/>
<path d="M49.4224 35.2731C49.5537 34.5452 49.8738 33.9428 50.391 33.4659C50.9081 32.989 51.5401 32.7548 52.2953 32.7548C53.0505 32.7548 53.5922 33.0058 54.0355 33.4994C54.4787 33.9846 54.6429 34.5787 54.528 35.2647L54.1915 37.1807C54.0683 37.9002 53.74 38.5026 53.2229 38.9795C52.7057 39.4564 52.0491 39.6907 51.2693 39.6907C50.5551 39.6907 49.9888 39.4396 49.5537 38.9544C49.1269 38.4691 48.9791 37.8751 49.0941 37.189L49.4224 35.2731ZM50.0791 37.1639C50.0052 37.599 50.0791 37.9671 50.3335 38.2767C50.588 38.5779 50.9327 38.7285 51.3678 38.7285C51.8028 38.7285 52.205 38.5779 52.558 38.2767C52.9109 37.9755 53.1326 37.599 53.2064 37.1639L53.5266 35.3066C53.6004 34.8715 53.5102 34.5034 53.2557 34.1938C53.0094 33.8926 52.6565 33.7336 52.2214 33.7336C51.7864 33.7336 51.3924 33.8926 51.0312 34.1938C50.6783 34.495 50.4649 34.8631 50.3828 35.3066L50.0626 37.1639H50.0791Z" fill="#2D2377"/>
<path d="M59.8552 33.4825C60.2985 33.9594 60.4626 34.5199 60.3477 35.1892L59.6746 39.0881C59.6254 39.3809 59.3627 39.6068 59.0836 39.6068C58.8045 39.6068 58.6486 39.3809 58.6978 39.0881L59.3709 35.206C59.4366 34.8044 59.3463 34.453 59.0836 34.1769C58.8292 33.8924 58.4762 33.7502 58.033 33.7502C57.5897 33.7502 57.2039 33.8924 56.851 34.1769C56.5062 34.4613 56.2928 34.8044 56.2271 35.206L55.554 39.0881C55.4966 39.3809 55.2585 39.6068 54.9877 39.6068C54.7168 39.6068 54.5198 39.3809 54.569 39.0881L55.2421 35.1892C55.357 34.4864 55.6854 33.9175 56.2025 33.4657C56.7278 33.0056 57.3681 32.7797 58.115 32.7797C58.862 32.7797 59.412 33.0139 59.847 33.4908L59.8552 33.4825Z" fill="#2D2377"/>
<path d="M61.3081 39.2224C60.8648 38.9295 60.6186 38.6116 60.5611 38.2937C60.5283 38.1347 60.5611 37.9925 60.6678 37.8837C60.7746 37.7666 60.8977 37.7164 61.0372 37.7164C61.2178 37.7164 61.3656 37.8 61.4805 37.9757C61.5872 38.1514 61.7678 38.3188 62.0222 38.461C62.2767 38.6116 62.5968 38.6785 62.9662 38.6785C63.7788 38.6785 64.3616 38.3104 64.3616 37.6243C64.3616 37.1391 63.9922 36.8128 63.1139 36.5283C62.014 36.1937 61.4641 35.608 61.4641 34.7713C61.4641 34.1438 61.6939 33.6502 62.1454 33.2988C62.5968 32.9474 63.1632 32.7717 63.8445 32.7717C64.4026 32.7717 64.8952 32.9223 65.2892 33.2152C65.6832 33.508 65.9048 33.8259 65.9376 34.1606C65.9622 34.445 65.7078 34.7044 65.4123 34.7044C65.2071 34.7044 65.0675 34.6375 64.9854 34.4869C64.7392 34.0016 64.2959 33.759 63.6475 33.759C62.9334 33.759 62.4162 34.0769 62.4162 34.6709C62.4162 35.106 62.7692 35.357 63.6639 35.6582C64.8377 36.0598 65.4205 36.6706 65.4205 37.4654C65.4205 38.1431 65.1824 38.6785 64.7064 39.0718C64.2385 39.465 63.6064 39.6491 62.8349 39.6491C62.2685 39.6491 61.7596 39.4985 61.3163 39.214L61.3081 39.2224Z" fill="#2D2377"/>
<path d="M66.6682 38.9791C66.2414 38.5022 66.0772 37.9416 66.1921 37.2723L66.8652 33.3735C66.9145 33.0806 67.1771 32.8547 67.4562 32.8547C67.7353 32.8547 67.8995 33.0806 67.8502 33.3735L67.1689 37.2555C67.1033 37.6571 67.1853 38.0085 67.448 38.2846C67.7025 38.5691 68.0472 38.7113 68.4823 38.7113C68.9173 38.7113 69.3195 38.5691 69.6725 38.2846C70.0254 38.0002 70.2389 37.6571 70.3127 37.2555L70.9858 33.3735C71.0351 33.0806 71.2813 32.8547 71.5522 32.8547C71.8231 32.8547 72.0201 33.0806 71.9708 33.3735L71.2977 37.2723C71.1828 37.9751 70.8627 38.544 70.3374 39.0042C69.8202 39.456 69.1718 39.6819 68.392 39.6819C67.6778 39.6819 67.1033 39.4476 66.6682 38.9707V38.9791Z" fill="#2D2377"/>
<path d="M72.9394 39.0966C72.8901 39.381 72.6439 39.5902 72.3648 39.5902C72.0857 39.5902 71.9051 39.3727 71.9544 39.0966L73.4072 30.6965C73.4647 30.4037 73.711 30.1862 73.99 30.1862C74.2691 30.1862 74.4497 30.4037 74.3923 30.6965L72.9394 39.0966Z" fill="#2D2377"/>
<path d="M77.6756 33.5831C77.93 33.5831 78.1024 33.7922 78.0532 34.06C78.0039 34.3361 77.7987 34.5369 77.5442 34.5369H75.722L75.369 36.595L75.2049 37.5321C75.0735 38.2767 75.3526 38.7285 75.9929 38.7285C76.4607 38.7285 76.8055 38.4775 77.0353 37.9839C77.1092 37.8333 77.2405 37.7664 77.4129 37.7664C77.5853 37.7664 77.7084 37.8584 77.7741 38.0341C77.8397 38.2098 77.8397 38.352 77.7577 38.4692C77.4211 39.2723 76.7152 39.699 75.7794 39.699C75.1884 39.699 74.7534 39.5066 74.4661 39.1217C74.1788 38.7369 74.0967 38.2349 74.2034 37.6241L74.3758 36.6536L75.0982 32.462C75.1474 32.1775 75.4019 31.96 75.6727 31.96C75.9436 31.96 76.1242 32.1775 76.0749 32.462L75.8779 33.5914H77.6674L77.6756 33.5831Z" fill="#2D2377"/>
<path d="M79.1366 39.0797C79.0874 39.3642 78.8411 39.5733 78.5621 39.5733C78.283 39.5733 78.1024 39.3558 78.1516 39.0797L79.1366 33.3904C79.1941 33.0976 79.4404 32.8884 79.7194 32.8884C79.9985 32.8884 80.1709 33.106 80.1216 33.3904L79.1366 39.0797ZM80.0314 31.0394C80.3433 31.0394 80.5485 31.2904 80.4992 31.6084C80.4418 31.9096 80.1463 32.1773 79.8344 32.1773C79.5224 32.1773 79.3254 31.9179 79.3829 31.6084C79.4403 31.2904 79.7276 31.0394 80.0314 31.0394Z" fill="#2D2377"/>
<path d="M85.3832 33.4825C85.8265 33.9594 85.9907 34.5199 85.8757 35.1892L85.2026 39.0881C85.1534 39.3809 84.8907 39.6068 84.6116 39.6068C84.3326 39.6068 84.1766 39.3809 84.2259 39.0881L84.8989 35.206C84.9646 34.8044 84.8743 34.453 84.6116 34.1769C84.3572 33.8924 84.0042 33.7502 83.561 33.7502C83.1177 33.7502 82.7319 33.8924 82.379 34.1769C82.0342 34.4613 81.8208 34.8044 81.7551 35.206L81.082 39.0881C81.0246 39.3809 80.7866 39.6068 80.5157 39.6068C80.2448 39.6068 80.0478 39.3809 80.097 39.0881L80.7701 35.1892C80.885 34.4864 81.2134 33.9175 81.7305 33.4657C82.2558 33.0056 82.8961 32.7797 83.6431 32.7797C84.39 32.7797 84.94 33.0139 85.375 33.4908L85.3832 33.4825Z" fill="#2D2377"/>
<path d="M91.2358 33.4825C91.6544 33.9594 91.8022 34.5199 91.6955 35.1892L91.0634 38.8287C91.0634 38.8287 91.0634 38.8622 91.0634 38.8705L91.0142 39.1466C90.8582 40.0502 90.497 40.753 89.9307 41.2466C89.3725 41.7486 88.6584 41.9996 87.8211 41.9996H86.8443C86.5324 41.9996 86.36 41.8156 86.4093 41.5227C86.4585 41.2215 86.6802 41.0458 87.0167 41.0458H87.7801C88.3793 41.0458 88.88 40.8785 89.3068 40.5271C89.7337 40.1841 89.9963 39.7239 90.0948 39.1466L90.1195 39.0128V38.9877L90.1769 38.6865C89.9881 38.9375 89.7173 39.1634 89.3725 39.3558C89.0277 39.5482 88.6502 39.6486 88.248 39.6486C87.5667 39.6486 87.0331 39.4395 86.6391 39.0128C86.2451 38.5777 86.1138 37.9837 86.2451 37.2307L86.5981 35.1892C86.7212 34.4781 87.0577 33.8924 87.5913 33.449C88.1248 33.0056 88.7815 32.7797 89.5613 32.7797C90.2672 32.7797 90.8336 33.0139 91.244 33.4908L91.2358 33.4825ZM90.7105 35.2227C90.7761 34.8044 90.694 34.4613 90.4314 34.1769C90.1769 33.884 89.8322 33.7418 89.3971 33.7418C88.9621 33.7418 88.5599 33.884 88.2069 34.1769C87.8539 34.4613 87.6405 34.8044 87.5667 35.2227L87.2137 37.2474C87.148 37.6657 87.2383 38.0088 87.4928 38.3016C87.7472 38.5861 88.1002 38.7283 88.5435 38.7283C88.9867 38.7283 89.3725 38.5861 89.7255 38.3016C90.0784 38.0088 90.2836 37.6657 90.3575 37.2474L90.7187 35.2227H90.7105Z" fill="#2D2377"/>
</svg>
