<svg width="198" height="203" viewBox="0 0 198 203" fill="none" xmlns="http://www.w3.org/2000/svg">
<path opacity="0.05" d="M99 202.567C95.8833 202.567 93.2708 201.491 91.1625 199.339C89.0542 197.186 88 194.519 88 191.337V113.01C76.2667 113.01 64.9917 110.718 54.175 106.132C43.3583 101.547 33.825 95.043 25.575 86.6207C17.325 78.1985 11 68.4661 6.6 57.4236C2.2 46.3811 0 34.8706 0 22.8923V11.6627C0 8.48092 1.05417 5.81387 3.1625 3.66151C5.27083 1.50916 7.88333 0.432983 11 0.432983H22C33.55 0.432983 44.7333 2.72571 55.55 7.31116C66.3667 11.8966 75.9 18.4005 84.15 26.8227C89.8333 32.6247 94.5542 38.9882 98.3125 45.9132C102.071 52.8381 104.958 60.231 106.975 68.0918C107.892 66.7816 108.9 65.5183 110 64.3017C111.1 63.0852 112.292 61.8219 113.575 60.5117C121.825 52.0895 131.358 45.5856 142.175 41.0002C152.992 36.4147 164.267 34.122 176 34.122H187C190.117 34.122 192.729 35.1982 194.838 37.3505C196.946 39.5029 198 42.1699 198 45.3517V56.5813C198 68.5597 195.754 80.0701 191.262 91.1126C186.771 102.155 180.4 111.887 172.15 120.31C163.9 128.732 154.413 135.189 143.688 139.681C132.963 144.173 121.733 146.419 110 146.419V191.337C110 194.519 108.946 197.186 106.838 199.339C104.729 201.491 102.117 202.567 99 202.567Z" fill="#2D2377"/>
</svg>
